# xmcd CD database file
#
# Track frame offsets:
#	182
#	21127
#	45117
#	60420
#	79212
#	96042
#	111275
#	132817
#	155610
#	172057
#	194392
#
# Disc length: 2741 seconds
#
# Revision: 4
# Processed by: cddbd v1.4PL0 Copyright (c) Steve Scherf et al.
# Submitted via: CDex 1.40Beta9
#
DISCID=860ab30b
DTITLE=Sister Hazel - Sister Hazel
DYEAR=1994
DGENRE=Folk-Rock
TTITLE0=Feel It
TTITLE1=Sometimes
TTITLE2=All For You (Acoustic Version)
TTITLE3=Will Not Follow
TTITLE4=One Nation
TTITLE5=Used to Run
TTITLE6=Little Things
TTITLE7=Space Between Us
TTITLE8=Don't Think It's Funny
TTITLE9=Running Through the Fields (For Jeffrey)
TTITLE10=Bring It On Home
EXTD=YEAR: 1994 ID3G: 81
EXTT0=
EXTT1=
EXTT2=
EXTT3=
EXTT4=
EXTT5=
EXTT6=
EXTT7=
EXTT8=
EXTT9=
EXTT10=
PLAYORDER=
